<?xml version="1.0" encoding="UTF-8"?>
<svg xmlns="http://www.w3.org/2000/svg" xmlns:xlink="http://www.w3.org/1999/xlink" width="200px" height="183px" viewBox="0 0 200 183" version="1.1">
<g id="surface1">
<path style=" stroke:none;fill-rule:nonzero;fill:rgb(94.117647%,85.882354%,30.980393%);fill-opacity:1;" d="M 2.367188 66.40625 L 117.578125 66.40625 L 117.578125 181.703125 L 2.367188 181.703125 Z M 2.367188 66.40625 "/>
<path style=" stroke:none;fill-rule:nonzero;fill:rgb(19.607843%,20%,18.82353%);fill-opacity:1;" d="M 108.148438 154.203125 C 107.304688 148.945312 103.878906 144.527344 93.726562 140.40625 C 90.199219 138.785156 86.269531 137.621094 85.097656 134.949219 C 84.679688 133.390625 84.625 132.515625 84.890625 131.574219 C 85.644531 128.515625 89.289062 127.5625 92.183594 128.441406 C 94.046875 129.066406 95.808594 130.5 96.871094 132.789062 C 101.84375 129.566406 101.832031 129.589844 105.304688 127.375 C 104.03125 125.40625 103.355469 124.492188 102.523438 123.648438 C 99.53125 120.308594 95.457031 118.585938 88.941406 118.71875 L 85.546875 119.15625 C 82.292969 119.980469 79.195312 121.6875 77.375 123.980469 C 71.921875 130.171875 73.476562 141.007812 80.113281 145.46875 C 86.652344 150.382812 96.257812 151.5 97.484375 156.089844 C 98.675781 161.710938 93.355469 163.53125 88.066406 162.886719 C 84.164062 162.074219 82 160.089844 79.65625 156.484375 C 75.339844 158.984375 75.339844 158.984375 70.90625 161.539062 C 71.957031 163.839844 73.058594 164.882812 74.824219 166.875 C 83.171875 175.347656 104.054688 174.929688 107.800781 162.109375 C 107.953125 161.667969 108.960938 158.734375 108.148438 154.203125 Z M 65 119.398438 L 54.226562 119.398438 L 54.179688 147.277344 C 54.179688 153.207031 54.488281 158.644531 53.523438 160.308594 C 51.945312 163.585938 47.859375 163.179688 45.996094 162.546875 C 44.105469 161.613281 43.140625 160.285156 42.023438 158.414062 C 41.714844 157.875 41.484375 157.460938 41.410156 157.429688 L 32.648438 162.796875 C 34.105469 165.789062 36.25 168.386719 39 170.074219 C 43.105469 172.539062 48.625 173.296875 54.398438 171.972656 C 58.15625 170.875 61.398438 168.605469 63.09375 165.15625 C 65.546875 160.628906 65.019531 155.148438 65 149.085938 C 65.054688 139.199219 65 129.316406 65 119.398438 Z M 65 119.398438 "/>
<path style=" stroke:none;fill-rule:nonzero;fill:rgb(100%,100%,100%);fill-opacity:1;" d="M 103.058594 43.554688 L 194.789062 43.554688 L 194.789062 111.40625 L 103.058594 111.40625 Z M 103.058594 43.554688 "/>
<path style=" stroke:none;fill-rule:nonzero;fill:rgb(0%,47.843137%,80.000001%);fill-opacity:1;" d="M 83.578125 59.128906 L 83.578125 116.695312 L 198.617188 116.695312 L 198.617188 1.566406 L 83.578125 1.566406 Z M 176.285156 54.523438 C 179.039062 55.164062 181.542969 56.605469 183.480469 58.667969 C 184.546875 59.78125 185.472656 61.019531 186.242188 62.355469 C 186.242188 62.5 181.273438 65.863281 178.242188 67.742188 C 178.132812 67.816406 177.691406 67.335938 177.203125 66.609375 C 176.082031 64.667969 174.039062 63.441406 171.800781 63.359375 C 168.3125 63.117188 166.066406 64.953125 166.085938 67.964844 C 166.054688 68.710938 166.226562 69.457031 166.582031 70.117188 C 167.347656 71.714844 168.773438 72.660156 173.246094 74.597656 C 181.484375 78.140625 185.007812 80.480469 187.195312 83.804688 C 189.648438 87.488281 190.191406 93.441406 188.53125 97.84375 C 186.691406 102.628906 182.183594 105.882812 175.804688 106.960938 C 172.890625 107.292969 169.945312 107.261719 167.042969 106.867188 C 162.589844 106.132812 158.488281 103.992188 155.335938 100.761719 C 154.277344 99.589844 152.21875 96.542969 152.34375 96.324219 C 152.679688 96.074219 153.035156 95.847656 153.402344 95.648438 L 157.664062 93.292969 L 160.96875 91.375 L 161.65625 92.398438 C 162.820312 94.066406 164.304688 95.488281 166.019531 96.578125 C 169.703125 98.515625 174.726562 98.246094 177.210938 96.007812 C 178.933594 94.316406 179.203125 91.632812 177.847656 89.636719 C 176.925781 88.355469 175.085938 87.277344 169.941406 85.03125 C 164.003906 82.46875 161.445312 80.882812 159.109375 78.363281 C 157.648438 76.695312 156.574219 74.734375 155.953125 72.605469 C 155.488281 70.175781 155.421875 67.6875 155.75 65.238281 C 156.972656 59.5 161.273438 55.492188 167.546875 54.304688 C 170.457031 53.945312 173.398438 54.027344 176.285156 54.542969 Z M 149.28125 59.351562 L 149.28125 64.070312 L 134.34375 64.070312 L 134.34375 106.644531 L 123.75 106.644531 L 123.75 64.058594 L 108.777344 64.058594 L 108.777344 59.453125 C 108.726562 57.867188 108.765625 56.273438 108.886719 54.691406 C 108.957031 54.609375 118.089844 54.609375 129.132812 54.609375 L 149.222656 54.609375 Z M 149.28125 59.351562 "/>
</g>
</svg>
