<?xml version="1.0" encoding="UTF-8"?>
<svg xmlns="http://www.w3.org/2000/svg" xmlns:xlink="http://www.w3.org/1999/xlink" width="200px" height="180px" viewBox="0 0 200 180" version="1.1">
<g id="surface1">
<path style=" stroke:none;fill-rule:nonzero;fill:rgb(94.117647%,85.882354%,30.980393%);fill-opacity:1;" d="M 2.410156 61.320312 L 119.664062 61.320312 L 119.664062 178.679688 L 2.410156 178.679688 Z M 2.410156 61.320312 "/>
<path style=" stroke:none;fill-rule:nonzero;fill:rgb(19.607843%,20%,18.82353%);fill-opacity:1;" d="M 110.066406 150.691406 C 109.207031 145.335938 105.71875 140.839844 95.386719 136.644531 C 91.796875 134.996094 87.796875 133.8125 86.605469 131.089844 C 86.179688 129.503906 86.125 128.613281 86.390625 127.652344 C 87.160156 124.539062 90.871094 123.570312 93.816406 124.464844 C 95.710938 125.101562 97.503906 126.5625 98.585938 128.890625 C 103.644531 125.613281 103.636719 125.632812 107.167969 123.382812 C 105.875 121.375 105.183594 120.449219 104.335938 119.589844 C 101.292969 116.1875 97.148438 114.433594 90.519531 114.566406 L 87.0625 115.015625 C 83.753906 115.851562 80.597656 117.59375 78.746094 119.921875 C 73.195312 126.226562 74.777344 137.257812 81.535156 141.800781 C 88.1875 146.796875 97.960938 147.933594 99.210938 152.609375 C 100.425781 158.332031 95.007812 160.183594 89.625 159.527344 C 85.65625 158.699219 83.453125 156.683594 81.066406 153.011719 C 76.675781 155.554688 76.675781 155.554688 72.160156 158.15625 C 73.230469 160.496094 74.355469 161.558594 76.148438 163.585938 C 84.644531 172.210938 105.898438 171.785156 109.710938 158.734375 C 109.863281 158.285156 110.890625 155.300781 110.066406 150.691406 Z M 66.152344 115.261719 L 55.183594 115.261719 L 55.140625 143.640625 C 55.140625 149.675781 55.453125 155.210938 54.472656 156.902344 C 52.867188 160.238281 48.707031 159.828125 46.8125 159.179688 C 44.886719 158.230469 43.90625 156.882812 42.769531 154.972656 C 42.453125 154.425781 42.222656 154.003906 42.144531 153.972656 L 33.226562 159.4375 C 34.707031 162.484375 36.894531 165.125 39.691406 166.84375 C 43.871094 169.351562 49.488281 170.125 55.363281 168.773438 C 59.183594 167.660156 62.484375 165.347656 64.210938 161.835938 C 66.707031 157.226562 66.171875 151.648438 66.148438 145.480469 C 66.207031 135.417969 66.152344 125.355469 66.152344 115.261719 Z M 66.152344 115.261719 "/>
<path style=" stroke:none;fill-rule:nonzero;fill:rgb(100%,100%,100%);fill-opacity:1;" d="M 101.34375 44.0625 L 194.699219 44.0625 L 194.699219 113.128906 L 101.34375 113.128906 Z M 101.34375 44.0625 "/>
<path style=" stroke:none;fill-rule:nonzero;fill:rgb(0%,47.843137%,80.000001%);fill-opacity:1;" d="M 81.515625 59.914062 L 81.515625 118.507812 L 198.59375 118.507812 L 198.59375 1.320312 L 81.515625 1.320312 Z M 175.863281 55.226562 C 178.667969 55.878906 181.214844 57.347656 183.1875 59.445312 C 184.273438 60.578125 185.214844 61.839844 185.996094 63.195312 C 185.996094 63.347656 180.941406 66.769531 177.859375 68.679688 C 177.742188 68.757812 177.296875 68.269531 176.796875 67.527344 C 175.65625 65.550781 173.582031 64.304688 171.300781 64.21875 C 167.753906 63.972656 165.464844 65.84375 165.484375 68.90625 C 165.453125 69.667969 165.628906 70.425781 165.988281 71.101562 C 166.769531 72.722656 168.222656 73.6875 172.769531 75.65625 C 181.15625 79.265625 184.742188 81.644531 186.96875 85.03125 C 189.464844 88.78125 190.015625 94.839844 188.328125 99.320312 C 186.453125 104.191406 181.867188 107.503906 175.375 108.601562 C 172.410156 108.941406 169.414062 108.90625 166.457031 108.507812 C 161.925781 107.757812 157.753906 105.582031 154.546875 102.292969 C 153.464844 101.101562 151.371094 97.996094 151.5 97.773438 C 151.84375 97.519531 152.203125 97.289062 152.578125 97.089844 L 156.914062 94.6875 L 160.277344 92.738281 L 160.976562 93.777344 C 162.164062 95.476562 163.671875 96.921875 165.417969 98.035156 C 169.167969 100.003906 174.28125 99.730469 176.808594 97.453125 C 178.5625 95.730469 178.832031 93 177.453125 90.964844 C 176.519531 89.660156 174.644531 88.566406 169.410156 86.277344 C 163.367188 83.671875 160.761719 82.058594 158.382812 79.492188 C 156.898438 77.796875 155.804688 75.796875 155.171875 73.632812 C 154.699219 71.15625 154.632812 68.625 154.964844 66.132812 C 156.210938 60.292969 160.585938 56.210938 166.972656 55.003906 C 169.933594 54.636719 172.929688 54.71875 175.863281 55.246094 Z M 148.382812 60.140625 L 148.382812 64.941406 L 133.179688 64.941406 L 133.179688 108.28125 L 122.398438 108.28125 L 122.398438 64.929688 L 107.160156 64.929688 L 107.160156 60.242188 C 107.113281 58.628906 107.148438 57.007812 107.273438 55.394531 C 107.347656 55.3125 116.636719 55.3125 127.878906 55.3125 L 148.324219 55.3125 Z M 148.382812 60.140625 "/>
</g>
</svg>
