<?xml version="1.0" encoding="UTF-8"?>
<svg xmlns="http://www.w3.org/2000/svg" xmlns:xlink="http://www.w3.org/1999/xlink" width="200px" height="200px" viewBox="0 0 200 200" version="1.1">
<g id="surface1">
<path style=" stroke:none;fill-rule:nonzero;fill:rgb(91.764706%,26.274511%,20.784314%);fill-opacity:1;" d="M 31.652344 128.476562 L 135.558594 128.476562 C 147.101562 128.476562 156.457031 137.832031 156.457031 149.375 C 156.457031 160.917969 147.101562 170.273438 135.558594 170.273438 L 31.652344 170.273438 C 20.109375 170.273438 10.753906 160.917969 10.753906 149.375 C 10.753906 137.832031 20.109375 128.476562 31.652344 128.476562 Z M 31.652344 128.476562 "/>
<path style=" stroke:none;fill-rule:nonzero;fill:rgb(98.431373%,73.725492%,1.568628%);fill-opacity:1;" d="M 123.429688 166.371094 L 39.367188 105.296875 C 30.03125 98.511719 27.960938 85.445312 34.746094 76.105469 C 41.527344 66.769531 54.597656 64.699219 63.9375 71.484375 L 147.996094 132.558594 C 157.335938 139.339844 159.40625 152.410156 152.621094 161.75 C 145.835938 171.085938 132.769531 173.15625 123.429688 166.371094 Z M 123.429688 166.371094 "/>
<path style=" stroke:none;fill-rule:nonzero;fill:rgb(20.392157%,65.882355%,32.549021%);fill-opacity:1;" d="M 123.753906 43.894531 L 155.863281 142.714844 C 159.429688 153.695312 153.421875 165.484375 142.445312 169.050781 C 131.46875 172.617188 119.679688 166.609375 116.113281 155.632812 L 84.003906 56.8125 C 80.4375 45.835938 86.441406 34.042969 97.421875 30.476562 C 108.398438 26.910156 120.1875 32.917969 123.753906 43.894531 Z M 123.753906 43.894531 "/>
<path style=" stroke:none;fill-rule:nonzero;fill:rgb(25.882354%,52.156866%,95.686275%);fill-opacity:1;" d="M 116.039062 142.714844 L 148.144531 43.894531 C 151.714844 32.917969 163.503906 26.910156 174.480469 30.476562 C 185.457031 34.042969 191.464844 45.832031 187.898438 56.8125 L 155.789062 155.632812 C 152.222656 166.609375 140.433594 172.617188 129.457031 169.050781 C 118.476562 165.480469 112.472656 153.691406 116.039062 142.714844 Z M 116.039062 142.714844 "/>
<path style=" stroke:none;fill-rule:nonzero;fill:rgb(100%,100%,100%);fill-opacity:1;" d="M 114.273438 50.5 C 114.273438 44.738281 109.605469 40.070312 103.84375 40.070312 C 98.082031 40.070312 93.414062 44.738281 93.414062 50.5 C 93.414062 56.261719 98.082031 60.929688 103.84375 60.929688 C 109.605469 60.929688 114.273438 56.261719 114.273438 50.5 Z M 114.273438 50.5 "/>
<path style=" stroke:none;fill-rule:nonzero;fill:rgb(100%,100%,100%);fill-opacity:1;" d="M 61.773438 88.0625 C 61.773438 82.300781 57.105469 77.632812 51.34375 77.632812 C 45.582031 77.632812 40.914062 82.300781 40.914062 88.0625 C 40.914062 93.824219 45.582031 98.492188 51.34375 98.492188 C 57.105469 98.492188 61.773438 93.824219 61.773438 88.0625 Z M 61.773438 88.0625 "/>
<path style=" stroke:none;fill-rule:nonzero;fill:rgb(100%,100%,100%);fill-opacity:1;" d="M 42.210938 149.453125 C 42.210938 143.691406 37.542969 139.023438 31.78125 139.023438 C 26.019531 139.023438 21.351562 143.691406 21.351562 149.453125 C 21.351562 155.214844 26.019531 159.882812 31.78125 159.882812 C 37.542969 159.882812 42.210938 155.214844 42.210938 149.453125 Z M 42.210938 149.453125 "/>
<path style=" stroke:none;fill-rule:nonzero;fill:rgb(100%,100%,100%);fill-opacity:1;" d="M 146.453125 149.078125 C 146.453125 143.316406 141.785156 138.648438 136.023438 138.648438 C 130.261719 138.648438 125.59375 143.316406 125.59375 149.078125 C 125.59375 154.839844 130.261719 159.507812 136.023438 159.507812 C 141.785156 159.507812 146.453125 154.839844 146.453125 149.078125 Z M 146.453125 149.078125 "/>
<path style=" stroke:none;fill-rule:nonzero;fill:rgb(100%,100%,100%);fill-opacity:1;" d="M 178.660156 49.957031 C 178.660156 44.195312 173.992188 39.527344 168.230469 39.527344 C 162.46875 39.527344 157.800781 44.195312 157.800781 49.957031 C 157.800781 55.71875 162.46875 60.386719 168.230469 60.386719 C 173.992188 60.386719 178.660156 55.71875 178.660156 49.957031 Z M 178.660156 49.957031 "/>
</g>
</svg>
