<?xml version="1.0" encoding="UTF-8"?>
<svg xmlns="http://www.w3.org/2000/svg" xmlns:xlink="http://www.w3.org/1999/xlink" width="145px" height="200px" viewBox="0 0 145 199" version="1.1">
<g id="surface1">
<path style=" stroke:none;fill-rule:nonzero;fill:rgb(9.411765%,50.196081%,21.960784%);fill-opacity:1;" d="M 95.15625 0 L 145 49.75 L 120.078125 54.273438 L 95.15625 49.75 L 90.625 24.875 Z M 95.15625 0 "/>
<path style=" stroke:none;fill-rule:nonzero;fill:rgb(20.392157%,65.882355%,32.549021%);fill-opacity:1;" d="M 95.15625 49.75 L 95.15625 0 L 13.59375 0 C 6.082031 0 0 6.070312 0 13.566406 L 0 185.433594 C 0 192.929688 6.082031 199 13.59375 199 L 131.40625 199 C 138.917969 199 145 192.929688 145 185.433594 L 145 49.75 Z M 95.15625 49.75 "/>
<path style=" stroke:none;fill-rule:nonzero;fill:rgb(100%,100%,100%);fill-opacity:1;" d="M 27.1875 76.886719 L 27.1875 142.464844 L 117.8125 142.464844 L 117.8125 76.886719 Z M 66.835938 131.160156 L 38.515625 131.160156 L 38.515625 115.328125 L 66.835938 115.328125 Z M 66.835938 104.023438 L 38.515625 104.023438 L 38.515625 88.191406 L 66.835938 88.191406 Z M 106.484375 131.160156 L 78.164062 131.160156 L 78.164062 115.328125 L 106.484375 115.328125 Z M 106.484375 104.023438 L 78.164062 104.023438 L 78.164062 88.191406 L 106.484375 88.191406 Z M 106.484375 104.023438 "/>
</g>
</svg>
